<svg width="0" height="0" display="none" version="1.1" aria-hidden="true" xmlns="http://www.w3.org/2000/svg" xmlns:xlink="http://www.w3.org/1999/xlink"><symbol viewBox="0 0 394 394" id="iconimble_chassi" xmlns="http://www.w3.org/2000/svg"><path d="M384.9 170.9l-21.3-2c-2.5-8.6-5.9-16.8-10.4-24.6l13.5-16.3c3.3-4 3-9.7-.6-13.4l-26.6-26.9c-3.6-3.7-9.5-4-13.5-.7l-16.3 13.5c-7.7-4.4-16-7.9-24.5-10.4l-2-21.2c-.5-5.1-4.8-9-10-9H240v-30c0-5.5-4.5-10-10-10s-10 4.5-10 10v50h-37.8c-16.1 0-31.4 7.6-41.2 20.4l-41.2 54.3-69.3 18.9C12.5 178.4.1 194.7 0 213.4v26.5c.1 22.8 18.7 41.2 41.5 41.2h5.4c7.5 27.9 36.2 44.3 64.1 36.8 17.9-4.9 32-18.9 36.8-36.8H220v83c0 5.5 4.5 10 10 10s10-4.5 10-10v-24h33.2c5.2 0 9.5-3.9 10-9.1l2-21.3c8.6-2.5 16.8-5.9 24.6-10.3l16.3 13.5c4 3.3 9.8 3 13.4-.6l26.9-26.9c3.6-3.6 3.9-9.5.6-13.5l-13.5-16.3c4.4-7.8 7.9-16 10.4-24.5l21-2c5.1-.5 9.1-4.8 9.1-10v-38.3c0-5.1-4-9.4-9.1-9.9zM97.3 299.8c-17.8 0-32.3-14.5-32.3-32.3s14.5-32.3 32.3-32.3 32.3 14.5 32.3 32.3c0 17.8-14.4 32.3-32.3 32.3zM220 261h-70.8c-3.5-28.7-29.6-49-58.2-45.6-23.8 2.9-42.6 21.7-45.6 45.6h-4c-11.8.1-21.4-9.4-21.5-21.2v-26.4c.1-9.6 6.5-18 15.8-20.6l72.6-19.8c2.1-.6 4-1.8 5.3-3.6l43.4-56.9c6-7.9 15.4-12.5 25.3-12.5H220v161zm20-103.5c23.4-7.8 48.7 4.9 56.5 28.4s-4.9 48.7-28.4 56.5c-9.1 3-19 3-28.1 0v-84.9zm134 52.4l-19 1.8c-4.3.4-7.9 3.6-8.8 7.8-2.5 11.2-7 21.8-13.3 31.4-2.4 3.7-2.1 8.4.7 11.8l12.2 14.8-14 14-14.8-12.1c-3.4-2.8-8.2-3.1-11.9-.6-9.5 6.3-20.1 10.8-31.3 13.2-4.3.9-7.4 4.5-7.8 8.8l-1.8 19.2H240v-56.9c34.9 7.8 69.5-14.2 77.2-49.1 7.8-34.9-14.2-69.5-49.1-77.3-9.3-2.1-18.9-2.1-28.1 0V80h24.1l1.9 19.1c.4 4.3 3.6 7.9 7.8 8.8 11.2 2.5 21.8 7 31.4 13.2 3.7 2.4 8.4 2.1 11.8-.7l14.7-12.2 13.8 13.9-12.3 14.9c-2.8 3.4-3.1 8.2-.6 11.9 6.3 9.5 10.8 20.1 13.2 31.3 1 4.3 4.5 7.4 8.9 7.8l19.3 1.9v20z"/></symbol><symbol viewBox="0 0 469.127 469.127" id="iconimble_manutencao" xmlns="http://www.w3.org/2000/svg"><path d="M352.514 218.514c0-6.4-2-12.6-5.6-17.9 9.3-6 14.7-16 14.9-26.8 0-17.3-14.6-32.2-32-32.2h-37.5v-22c4.4-2.7 8.4-5.7 12.2-9.2.1-.1.2-.2.2-.3 24.9-24.9 24.9-67.1 0-92-6-6-13.1-10.5-22.3-14.2l-7.9-3.2c-3-1.2-6.4-.9-9.1 1-2.7 1.9-4.3 5-4.2 8.3v38.3c0 1.4-.6 2-2 2s-2-.6-2-2v-38.3c-.2-5.7-4.9-10.2-10.6-10-1.2 0-2.3.3-3.4.7l-7.9 3.1c-8.4 3.1-16 7.9-22.4 14.2-12.2 12.2-18.9 28.8-18.8 46-.1 17.2 6.6 33.8 18.8 46.1.5.5.9.4 1.4 1.4h-39.3c-37.5 0-67.7 30.5-67.7 68v92.3c0 37.6 30.2 68.7 67.8 68.7h50.2v9c-4.3 2.7-8.4 5.7-12.2 9.2-.1.1-.1.2-.2.3-25 25.6-25 66.5 0 92 6 6 13.1 10.5 22.3 14.2l7.9 3.2c3.2 1.2 6.7.9 9.5-1 2.8-1.8 4.5-4.9 4.6-8.3v-38.3c0-1.4.6-2 2-2s2 .6 2 2v38.3c-.1 3.3 1.5 6.4 4.2 8.3 2.7 1.9 6.1 2.2 9.1 1l7.8-3.1c8.4-3.1 16-7.9 22.3-14.2 24.9-24.9 25-67.1 0-92-3.6-3.8-7.9-7-12.5-9.5v-9h15c12.8 0 27.7-14.2 27.7-32.2 0-6.2-1.9-12.3-5.3-17.5 8.9-6.4 14.2-16.6 14.4-27.5 0-6.6-2.1-13-5.9-18.3 9-6 14.4-16 14.5-26.6zm-125.2-186.4c2.9-2.9 6.2-5.4 10-7.2v23.3c0 12.2 9.8 22 22 22s22-9.8 22-22v-23.2c3 2 6.7 4.3 9.5 7.1 17.2 17.2 17.2 46.3 0 63.6-3.7 3.5-8 6.4-12.6 8.5-3.6 1.6-5.9 5.2-5.9 9.1v28.2h-27v-28c0-3.9-2.2-7.5-5.8-9.1-4.6-2-8.8-4.8-12.3-8.4-17.3-17.4-17.2-46.6.1-63.9zm63.4 404.8c-2.9 2.7-6.1 5.1-9.5 7.2v-23.3c0-12.2-9.8-22-22-22s-22 9.8-22 22v23.2c-3.7-1.8-7-4.2-10-7.1-17.2-17.2-17.4-46.3-.2-63.6 3.6-3.5 7.8-6.4 12.5-8.5 3.6-1.6 5.8-5.2 5.7-9.1v-15.2h27v15.1c0 3.9 2.3 7.5 5.8 9.1 4.6 2 8.9 4.8 12.5 8.4 17.3 17.3 17.5 46.5.2 63.8zm39-251.4h-12.1c-5.2 0-9.8 3.8-10.3 9-.6 5.9 4.1 11 10 11h.3l.7.2c1.2.3 2.5.5 3.7.6 5.8.8 10.6 6.2 10.6 12.1 0 6.4-5.6 12.2-12 12.2h-12.4c-5.5 0-10 4.4-10 9.8 0 5 3.5 9.1 8.2 9.9.9.2 1.8.4 2.6.7.9.3 1.9.5 2.9.5 6.4 0 12 5.7 12 12.1 0 6.7-5.8 11.1-7.7 12.1h-16.7c-5.5-.1-9.9 4.3-10 9.7-.1 4.9 3.5 9.1 8.2 9.9.6.1 1.2.3 1.8.5 1 .3 1.9.5 2.9.6 4.6.2 8.9 2.6 11 6.7 4.6 9.4-3.8 16.2-6.4 17.5h-132c-26.4 0-47.8-21.4-47.8-47.8v-93c-.2-26.4 21.1-48 47.5-48.2h50.5v10h-26.2c-5.2 0-9.8 3.8-10.3 9-.6 5.9 4.1 11 10 11h130.6c6.2 0 11.7 4.6 12.3 10.8.8 7.1-4.9 13.1-11.9 13.1z"/></symbol><symbol viewBox="0 0 424.7 424.7" id="iconimble_mechanic" xmlns="http://www.w3.org/2000/svg"><path d="M212.35 0c-42.4 0-76.8 34.4-76.8 76.8.1 42.4 34.4 76.8 76.8 76.8s76.8-34.4 76.8-76.8S254.75 0 212.35 0zm0 133.6c-31.4 0-56.8-25.4-56.8-56.8 0-31.3 25.5-56.7 56.8-56.8 31.4 0 56.8 25.4 56.8 56.8s-25.4 56.8-56.8 56.8zM337.45 208.8c-3.3-6.5-7.3-12.6-11.9-18.2l-.1-.1c-21.7-26.3-57.6-36.2-91.6-25.3-14 4.4-29 4.4-43 0-33.9-11-69.8-1.2-91.6 25.1-4.7 5.5-8.8 11.6-12.1 18.1-3.5 6.6-5.8 13-7.3 55.8-.1 2.7.9 5.3 2.8 7.2 2 2 4.6 3 7.3 3h244.8c5.4.1 9.9-4.2 10-9.7v-.5c-1.5-42.4-3.7-48.8-7.3-55.4zm-237.1 45.6c1.4-31 3.2-34.2 4.6-36.7 0-.1.1-.1.1-.2 2.6-5.1 5.8-9.9 9.5-14.2l.1-.1c16.5-19.9 44-27.4 70.1-18.9 18 5.7 37.2 5.7 55.2 0 26.5-8.5 53.3-1.3 70.1 18.8 3.7 4.6 7 9.5 9.6 14.8 0 .1.1.1.1.2 1.4 2.5 3.2 6.3 4.5 36.3h-223.9zM356.05 355.1c5.5.5 10.3-3.6 10.8-9.1.1-1.2 0-2.4-.4-3.6-7.3-25.1-29.7-41.2-57.1-41.5-24.6 0-45.3 13.5-54.7 34.5h-87.5c-11.1-18-31.3-30-52-30-28.8 0-50.6 17-56.9 44.6-1.2 5.4 2.1 10.7 7.5 11.9 1 .2 2 .3 3 .2l28.3-2.2c1.7 4.2 1.7 8.8 0 13l-28.4-2.4c-5.5-.5-10.3 3.6-10.8 9.1-.1 1.2 0 2.4.4 3.6 7.3 25.2 29.8 41.5 57.4 41.5 24.6 0 45.3-13.3 54.7-34.3h87c9.6 16 28 29.6 51.3 29.6h.6c28.5 0 50.4-16.9 57.2-44.1 1.3-5.4-1.9-10.8-7.3-12.1-1-.3-2.1-.4-3.2-.3l-28.3 2.2c-1.7-4.2-1.7-8.8 0-13l28.4 2.4zm-41.7 27.2c2.1 2.7 5.3 4.1 8.7 3.9l18-1.4c-6.8 9.8-17.9 15.3-31.9 15.3h-.4c-17.3 0-31-12.4-36.4-23.9-1.6-3.5-5.2-5.8-9.1-5.8h-100c-4.4 0-8.3 2.9-9.6 7.1-5.1 16.8-19.7 27.2-38.2 27.2-12.6 0-23.3-4.7-30.4-12.8l16.5 1.4c3.4.3 6.7-1.2 8.8-3.9l.2-.2c10.3-13.5 10.2-32.3-.2-45.8-2.1-2.7-5.3-4.2-8.7-3.9l-18.4 1.4c6.6-10.1 17.7-15.7 31.8-15.7 17.6 0 31.6 12.7 37.1 24.3 1.6 3.5 5.1 5.8 9 5.9h100.4c4.4-.1 8.3-3.1 9.6-7.3 5.1-16.8 19.7-27.3 38.1-27.3 12.5.1 23.2 4.8 30.3 13l-16.5-1.4c-3.4-.3-6.7 1.2-8.8 3.9l-.2.2c-10.3 13.6-10.2 32.4.3 45.8z"/></symbol><symbol viewBox="0 0 480.449 480.449" id="iconimble_uso" xmlns="http://www.w3.org/2000/svg"><path d="M379.124 67.347h-46.9v-5.3c-.1-17-13.9-30.8-30.9-30.7h-15.5c-10-25.4-38.7-37.9-64.1-27.9-12.8 5-22.9 15.1-27.9 27.9h-15.2c-16.8 0-30.4 13.6-30.4 30.4v5.7h-46.9c-22.8 0-41.1 18.9-41.1 41.7v330.4c0 22.5 18.2 40.8 40.8 40.9H379.124c22.5.2 41-17.9 41.1-40.5v-330.9c0-22.8-18.4-41.7-41.1-41.7zm-210.9-5.3c-.2-5.7 4.3-10.5 10-10.7H201.024c4.7 0 8.7-3.3 9.7-7.8 3.3-14.1 14.9-23.6 28.9-23.6 13.9 0 25.9 9.8 28.8 23.4 1 4.7 5 8 9.8 8h23c6-.1 10.9 4.7 10.9 10.7v39.3h-143.9v-39.3zm232 377.4c0 11.5-9.3 20.8-20.7 20.9h-278.2c-11.5.2-21-9-21.1-20.5V109.047c0-11.8 9.4-21.7 21.1-21.7h46.9v24.3c-.2 5.1 3.8 9.5 9 9.7h165c5.4.2 9.9-4.1 10-9.5v-24.5h46.9c11.8 0 21.1 10 21.1 21.7v330.4z"/><path d="M348.924 199.747l-3.6-3.4-17.1-40.1c-4-9.5-13.3-15.7-23.7-15.8h-125.5c-10.3.1-19.7 6.3-23.7 15.8l-16.8 39.1-5.7 5c-7.4 6.3-11.7 15.6-11.6 25.3v68.6c0 13.9 11.2 25.1 25 25.2.1-.1.2-.1.3-.1h12.9c14 0 25.8-11.1 25.8-25.2v-4.8h110v4.8c0 14 11.8 25.2 25.8 25.2h12.9c13.9.1 25.2-11 25.3-24.9v-70.6c0-9.1-3.7-17.8-10.3-24.1zm-175.2-35.8c.9-2.2 3-3.6 5.3-3.6h125.4c2.3 0 4.4 1.5 5.3 3.6l11.4 26.4h-11.2c-5.5-18.9-25.3-29.8-44.3-24.3-11.7 3.4-20.9 12.6-24.3 24.3h-78.9l11.3-26.4zm114 26.4h-24.2c2.9-3 7.2-5.7 12.1-5.7 4.9 0 9.2 2.7 12.1 5.7zm-122.5 103.8c0 3-2.8 5.2-5.8 5.2h-12.9c-2.8.1-5.2-2.1-5.3-4.9v-5.6c1.7.3 3.5.5 5.3.4h18.7v4.9zm-18.7-24.8c-2.9.1-5.2-2.2-5.3-5.1v-38.6c0-3.9 1.6-7.6 4.6-10.1l5.9-5.2h179.5l3.9 3.9c2.6 2.5 4.1 6 4 9.6v40.2c.1 2.9-2.2 5.2-5.1 5.3h-187.5zm192.7 24.9c.1 2.8-2.2 5.1-5 5.2-.1-.1-.2-.1-.3-.1h-12.9c-3 0-5.8-2.2-5.8-5.2v-4.8h18.7c1.8 0 3.5-.1 5.3-.4v5.3z"/><path d="M191.224 219.347h-32c-5.5 0-10 4.5-10 10v25c0 5.5 4.5 10 10 10h32c5.5 0 10-4.5 10-10v-25c0-5.5-4.5-10-10-10zm-11 26h-11v-6h11v6zM322.224 219.347h-32c-5.5 0-10 4.5-10 10v25c0 5.5 4.5 10 10 10h32c5.5 0 10-4.5 10-10v-25c0-5.5-4.5-10-10-10zm-11 26h-11v-6h11v6zM258.624 235.347h-36.7c-5.5 0-10 4.5-10 10s4.4 10 10 10h36.7c5.5 0 10-4.5 10-10s-4.5-10-10-10zM213.224 335.347h-86c-5.5 0-10 4.5-10 10v83c0 5.5 4.5 10 10 10h86c5.5 0 10-4.5 10-10v-83c0-5.5-4.5-10-10-10zm-10 83h-66v-63h66v63z"/><path d="M192.024 368.247c-4.1-3.5-10.3-3.1-13.9.9l-12.5 14.2-4.3-3.4c-4.3-3.5-10.6-2.8-14.1 1.5-3.3 4.4-2.6 10.7 1.8 14.2l11.8 9.4c4.2 3.3 10.2 2.8 13.8-1.2l18.6-21.5c3.6-4.2 3-10.5-1.2-14.1zM311.324 355.347h-62.1c-5.5 0-10 4.5-10 10s4.5 10 10 10h62.1c5.5 0 10-4.5 10-10s-4.5-10-10-10zM353.024 397.347h-103.8c-5.5 0-10 4.5-10 10s4.5 10 10 10h103.9c5.5 0 10-4.5 10-10s-4.5-10-10.1-10z"/></symbol></svg>